<svg id="Layer_3" data-name="Layer 3" xmlns="http://www.w3.org/2000/svg" viewBox="0 0 578.57 375.95"><defs><style>.cls-1{fill:#9e7254;}</style></defs><title>simbolo-estetica</title><path class="cls-1" d="M789.29,518.67s-80.35-59.18-150.17-66.93c-78.58-8.73-113,42.35-113,42.35s22.83-17.2,75.3-23.5c68.45-8.22,126.22,48.08,126.22,48.08l.09.12h-.09s-60.88,56.94-129.21,47.73c-53.72-7.24-93.3-52-93.3-52S439.46,444.25,360.88,453c-69.82,7.76-150.17,66.93-150.17,66.93h.38l-.38.13S291.06,579.21,360.88,587c78.58,8.73,113.05-42.35,113.05-42.35s-22.83,17.2-75.3,23.5C330.18,576.34,272.41,520,272.41,520l-.09-.13h.09S333.29,463,401.62,472.19c53.72,7.23,93.3,52,93.3,52s65.62,70.28,144.2,61.55c69.82-7.76,150.17-66.94,150.17-66.94h-.38Z" transform="translate(-210.71 -212.02)"/><path class="cls-1" d="M474.73,475.24s-19-19.24-23.5-75.3c-5.47-68.73,48.09-126.22,48.09-126.22l.12-.09v.09s55.68,60.73,47.73,129.21c-5.27,45.39-31.88,92.4-31.88,92.4h0c19.24-21.89,57.68-73.82,51.08-133.14C558.62,292.37,499.44,212,499.44,212v.38l-.12-.38s-59.18,80.35-66.94,150.17C423.65,440.77,474.73,475.24,474.73,475.24Z" transform="translate(-210.71 -212.02)"/><path class="cls-1" d="M578.08,415.38s-.6-20.53,17.5-53.89c23.61-43.52,80.59-54,80.59-54h.11l0,.06s7.41,58.7-25.69,95.53c-21.94,24.41-57,40.91-57,40.91h0c20.37-4.84,64.46-19.31,85.23-56.81,24.44-44.13,23.13-115.79,23.13-115.79l-.15.22.08-.27s-68,22.51-101.58,60.2C562.46,374,578.08,415.38,578.08,415.38Z" transform="translate(-210.71 -212.02)"/><path class="cls-1" d="M418.45,415.38s.59-20.53-17.5-53.89c-23.61-43.52-80.59-54-80.59-54h-.11l0,.06s-7.41,58.7,25.69,95.53C367.91,427.49,403,444,403,444h0c-20.36-4.84-64.45-19.31-85.22-56.81-24.45-44.13-23.14-115.79-23.14-115.79l.16.22-.08-.27s68,22.51,101.58,60.2C434.06,374,418.45,415.38,418.45,415.38Z" transform="translate(-210.71 -212.02)"/></svg>